<?xml version="1.0" standalone="no"?>
<!DOCTYPE svg PUBLIC "-//W3C//DTD SVG 20010904//EN"
 "http://www.w3.org/TR/2001/REC-SVG-20010904/DTD/svg10.dtd">
<svg version="1.0" xmlns="http://www.w3.org/2000/svg"
 width="700.000000pt" height="700.000000pt" viewBox="0 0 700.000000 700.000000"
 preserveAspectRatio="xMidYMid meet">
<metadata>
Created by potrace 1.11, written by Peter Selinger 2001-2013
</metadata>
<g transform="translate(0.000000,700.000000) scale(0.100000,-0.100000)"
fill="#000000" stroke="none">
<path d="M3471 6603 c-20 -17 -21 -29 -23 -193 l-3 -175 -120 -7 c-727 -44
-1417 -388 -1895 -944 -198 -230 -357 -491 -470 -771 -21 -52 -40 -96 -42 -99
-3 -2 -78 19 -166 48 -138 44 -165 50 -187 40 -30 -14 -35 -61 -7 -83 9 -8 86
-37 170 -64 83 -27 152 -53 152 -57 0 -5 -13 -61 -30 -126 -54 -215 -72 -348
-77 -594 -7 -302 12 -492 77 -748 138 -545 439 -1032 865 -1399 55 -47 113
-95 129 -107 l28 -21 -93 -129 c-111 -154 -120 -175 -94 -203 10 -12 28 -21
41 -21 25 0 50 29 163 187 l72 102 87 -55 c245 -154 537 -276 822 -343 250
-59 319 -66 640 -66 264 0 308 3 420 23 402 74 711 190 1014 380 l95 60 73
-101 c112 -158 137 -187 162 -187 13 0 31 9 41 21 26 28 17 49 -94 203 -51 70
-91 129 -89 130 58 40 196 163 308 275 441 441 712 1009 780 1631 17 151 14
461 -5 613 -16 130 -53 326 -79 411 -8 25 -13 46 -13 46 1 0 79 26 172 58 170
57 170 57 173 89 2 25 -2 35 -22 48 -23 16 -32 14 -186 -34 -89 -28 -165 -51
-169 -51 -4 0 -14 19 -20 42 -7 23 -35 94 -63 158 -330 769 -1035 1366 -1848
1564 -180 43 -322 65 -481 74 l-124 7 -3 175 c-2 164 -3 176 -23 193 -12 9
-25 17 -29 17 -4 0 -17 -8 -29 -17z m-193 -754 l172 -131 0 -417 0 -418 -22
-20 c-28 -25 -1145 -855 -1173 -871 -17 -10 -84 9 -429 122 -225 74 -412 140
-416 148 -4 7 -31 113 -60 234 l-53 222 58 93 c256 414 607 732 1040 945 218
107 388 164 640 217 59 13 71 7 243 -124z m848 87 c503 -128 958 -414 1301
-821 94 -111 210 -280 273 -397 l41 -77 -61 -193 c-34 -106 -67 -198 -73 -205
-10 -10 -308 -107 -730 -238 l-119 -36 -181 137 c-100 75 -370 278 -599 451
l-418 314 0 427 0 427 191 126 c217 144 177 135 375 85z m-2332 -1927 c221
-72 405 -134 409 -139 5 -4 111 -333 237 -731 l228 -723 -251 -354 -252 -354
-220 5 -220 5 -74 79 c-354 377 -587 888 -650 1428 -21 176 -8 622 19 674 9
18 341 239 359 240 8 1 195 -58 415 -130z m3893 59 c218 -167 299 -231 305
-243 15 -25 25 -331 17 -475 -26 -456 -166 -869 -425 -1257 -72 -107 -230
-300 -290 -354 l-29 -26 -218 5 -218 4 -244 343 c-135 188 -245 349 -245 357
0 18 447 1429 456 1437 6 6 792 258 811 260 6 1 42 -22 80 -51z m-1198 -2059
l243 -341 -83 -222 -84 -221 -55 -27 c-30 -15 -100 -43 -154 -63 -472 -170
-999 -195 -1485 -69 -189 49 -462 155 -483 187 -5 7 -35 97 -69 201 -41 128
-58 194 -52 206 4 10 116 169 248 353 l240 337 745 0 745 0 244 -341z"/>
</g>
</svg>
